<svg width="563" height="236" viewBox="0 0 563 236" fill="none" xmlns="http://www.w3.org/2000/svg">
<path d="M361.292 105.822L344.953 54.3393L339.923 38.4889L381.768 38.4889L376.956 54.3113L361.292 105.822Z" fill="#D4B02F"/>
<path fill-rule="evenodd" clip-rule="evenodd" d="M361 190C407.341 190 445 152.443 445 106C445 59.5572 407.341 22 361 22C314.659 22 277 59.5572 277 106C277 152.443 314.659 190 361 190ZM415.161 106C415.161 135.812 390.963 160.072 361 160.072C331.037 160.072 306.839 135.812 306.839 106C306.839 81.7492 322.851 61.1725 344.953 54.3393L361.292 105.822L376.956 54.3113C399.105 61.116 415.161 81.7159 415.161 106Z" fill="#D4B02F"/>
<path d="M211.66 10.8869H203.961V7.37789H201.097V27.6221H204.23V35H185.43V27.6221H188.564V7.37789H185.699V10.8869H178V0H211.66V10.8869Z" fill="#D5B02F"/>
<path d="M249.003 7.37789H246.765V27.6221H249.003V35H232.083V27.6221H234.232V20.1992H227.965V27.6221H230.114V35H213.194V27.6221H215.432V7.37789H213.194V0H230.114V7.37789H227.965V14.2159H234.232V7.37789H232.083V0H249.003V7.37789Z" fill="#D5B02F"/>
<path d="M250.786 35V27.6221H253.024V7.37789H250.786V0H281V13.5861H270.974V7.37789H265.557V14.4859H269.496V19.6144H265.557V27.6221H270.974V20.5141H281V35H250.786Z" fill="#D5B02F"/>
<path d="M120.274 141.65H128.303V168H84.4651L60.3781 118.193L52.9914 124.298V141.65H60.6993V168H0V141.65H8.029V69.3496H0V43H60.6993V69.3496H52.9914V90.5578L77.8813 69.3496H67.7648V43H127.501V69.3496H119.472L92.6547 91.5219L120.274 141.65Z" fill="#D5B02F"/>
<path d="M226.572 43H279.242V69.3496H271.213V168H226.09L179.04 95.5386V141.65H186.748V168H134.078V141.65H142.107V69.3496H134.078V43H192.047L234.28 107.428V69.3496H226.572V43Z" fill="#D5B02F"/>
<path d="M443.689 141.65H451.718V69.3496H443.689V43H517.395C530.777 43 541.215 45.7314 548.708 51.1941C556.202 56.6568 559.949 64.476 559.949 74.6517C559.949 80.9713 558.45 86.3269 555.453 90.7185C552.455 95.003 548.922 98.2699 544.854 100.519C540.893 102.662 537.04 104.108 533.293 104.857V106.464C540.893 107.214 547.745 109.624 553.847 113.694C559.949 117.764 563 125.048 563 135.545C563 146.792 558.771 155.039 550.314 160.288C541.857 165.429 530.884 168 517.395 168H443.689V141.65ZM505.352 95.6992C508.456 95.6992 510.758 94.8959 512.257 93.2892C513.863 91.5754 514.665 88.9512 514.665 85.4165V79.6324C514.665 76.0977 513.863 73.527 512.257 71.9203C510.758 70.2065 508.456 69.3496 505.352 69.3496H496.68V95.6992H505.352ZM506.476 141.65C509.58 141.65 511.882 140.847 513.381 139.24C514.987 137.527 515.789 134.902 515.789 131.368V124.298C515.789 120.763 514.987 118.193 513.381 116.586C511.882 114.872 509.58 114.015 506.476 114.015H496.68V141.65H506.476Z" fill="#D5B02F"/>
<path d="M118.274 236C116.363 236 114.72 235.761 113.347 235.284C112.003 234.777 110.883 234.136 109.987 233.361C109.091 232.555 108.374 231.72 107.837 230.855C107.299 229.99 106.896 229.17 106.627 228.395C106.358 227.589 106.179 226.948 106.09 226.471C106.03 225.964 106 225.711 106 225.711H110.48C110.48 225.711 110.524 225.919 110.614 226.337C110.704 226.754 110.883 227.276 111.152 227.903C111.45 228.529 111.883 229.17 112.451 229.826C113.018 230.453 113.78 230.975 114.735 231.392C115.691 231.81 116.901 232.018 118.364 232.018C120.574 232.018 122.321 231.496 123.605 230.453C124.889 229.379 125.531 227.992 125.531 226.292C125.531 224.831 125.039 223.697 124.053 222.892C123.097 222.087 121.724 221.461 119.932 221.013L115.542 219.939C113.989 219.552 112.54 219.015 111.196 218.329C109.882 217.613 108.822 216.689 108.016 215.555C107.239 214.392 106.851 212.946 106.851 211.216C106.851 209.277 107.329 207.622 108.285 206.25C109.24 204.878 110.539 203.834 112.182 203.118C113.824 202.373 115.691 202 117.782 202C119.812 202 121.5 202.313 122.844 202.939C124.187 203.566 125.263 204.341 126.069 205.266C126.875 206.161 127.473 207.07 127.861 207.995C128.249 208.889 128.503 209.65 128.622 210.276C128.742 210.903 128.801 211.216 128.801 211.216H124.501C124.501 211.216 124.441 210.947 124.322 210.411C124.202 209.874 123.919 209.262 123.471 208.576C123.023 207.861 122.336 207.234 121.41 206.697C120.484 206.161 119.23 205.892 117.647 205.892C115.497 205.892 113.869 206.399 112.764 207.413C111.689 208.427 111.152 209.59 111.152 210.903C111.152 212.096 111.585 213.065 112.451 213.811C113.317 214.526 114.511 215.078 116.034 215.466L120.783 216.629C122.485 217.046 124.023 217.658 125.397 218.463C126.771 219.239 127.861 220.253 128.667 221.505C129.473 222.728 129.877 224.234 129.877 226.024C129.877 227.813 129.429 229.468 128.533 230.989C127.667 232.511 126.368 233.733 124.635 234.658C122.933 235.553 120.813 236 118.274 236Z" fill="#D5B02F"/>
<path d="M183.822 235.553V206.295H173.474V202.447H198.56V206.295H188.212V235.553H183.822Z" fill="#D5B02F"/>
<path d="M257.127 236C254.529 236 252.289 235.508 250.407 234.524C248.526 233.51 247.063 232.093 246.017 230.274C245.002 228.425 244.494 226.247 244.494 223.742V202.447H248.884V223.742C248.884 226.039 249.556 227.962 250.9 229.513C252.274 231.064 254.35 231.839 257.127 231.839C259.934 231.839 262.01 231.064 263.354 229.513C264.727 227.962 265.414 226.039 265.414 223.742V202.447H269.804V223.742C269.804 226.247 269.282 228.425 268.236 230.274C267.221 232.093 265.773 233.51 263.891 234.524C262.01 235.508 259.755 236 257.127 236Z" fill="#D5B02F"/>
<path d="M317.271 235.553V202.447H328.022C330.68 202.447 332.995 202.925 334.966 203.879C336.937 204.804 338.58 206.056 339.894 207.637C341.208 209.218 342.193 210.992 342.85 212.961C343.507 214.929 343.836 216.942 343.836 219C343.836 221.058 343.507 223.071 342.85 225.039C342.193 227.008 341.208 228.782 339.894 230.363C338.58 231.944 336.937 233.211 334.966 234.166C332.995 235.09 330.68 235.553 328.022 235.553H317.271ZM327.843 206.295H321.661V231.705H327.843C329.784 231.705 331.472 231.347 332.905 230.632C334.369 229.916 335.578 228.961 336.534 227.768C337.519 226.546 338.251 225.174 338.729 223.653C339.207 222.132 339.446 220.581 339.446 219C339.446 217.419 339.207 215.868 338.729 214.347C338.251 212.826 337.519 211.469 336.534 210.276C335.578 209.054 334.369 208.084 332.905 207.368C331.472 206.653 329.784 206.295 327.843 206.295Z" fill="#D5B02F"/>
<path d="M390.179 235.553V202.447H394.57V235.553H390.179Z" fill="#D5B02F"/>
<path d="M456.963 236C454.335 236 452.02 235.523 450.019 234.568C448.018 233.584 446.346 232.287 445.002 230.676C443.658 229.036 442.643 227.202 441.956 225.174C441.269 223.146 440.926 221.073 440.926 218.955C440.926 216.838 441.269 214.78 441.956 212.782C442.643 210.754 443.658 208.934 445.002 207.324C446.346 205.713 448.018 204.431 450.019 203.476C452.02 202.492 454.335 202 456.963 202C459.591 202 461.905 202.492 463.906 203.476C465.907 204.431 467.58 205.713 468.923 207.324C470.267 208.934 471.283 210.754 471.97 212.782C472.657 214.78 473 216.838 473 218.955C473 221.073 472.657 223.146 471.97 225.174C471.283 227.202 470.267 229.036 468.923 230.676C467.58 232.287 465.907 233.584 463.906 234.568C461.905 235.523 459.591 236 456.963 236ZM456.963 231.929C458.844 231.929 460.502 231.571 461.935 230.855C463.369 230.139 464.563 229.17 465.519 227.947C466.504 226.725 467.251 225.338 467.759 223.787C468.266 222.236 468.52 220.625 468.52 218.955C468.52 217.315 468.266 215.734 467.759 214.213C467.251 212.662 466.504 211.275 465.519 210.053C464.563 208.83 463.369 207.861 461.935 207.145C460.502 206.429 458.844 206.071 456.963 206.071C455.081 206.071 453.424 206.429 451.99 207.145C450.557 207.861 449.347 208.83 448.362 210.053C447.406 211.275 446.674 212.662 446.167 214.213C445.659 215.734 445.405 217.315 445.405 218.955C445.405 220.625 445.659 222.236 446.167 223.787C446.674 225.338 447.406 226.725 448.362 227.947C449.347 229.17 450.557 230.139 451.99 230.855C453.424 231.571 455.081 231.929 456.963 231.929Z" fill="#D5B02F"/>
</svg>
